 <svg
      width="151"
      height="85"
      viewBox="0 0 151 85"
      fill="none"
      xmlns="http://www.w3.org/2000/svg"
    >
      <path
        d="M10.9773 56.1053V71.0371H2.64205V36.128H10.7045V49.6621H10.9943C11.5852 48.0484 12.5511 46.7871 13.892 45.878C15.2443 44.9689 16.8977 44.5144 18.8523 44.5144C20.6932 44.5144 22.2955 44.9234 23.6591 45.7416C25.0227 46.5484 26.0795 47.6905 26.8295 49.1678C27.5909 50.645 27.9659 52.3723 27.9545 54.3496V71.0371H19.6193V55.9859C19.6307 54.5314 19.267 53.395 18.5284 52.5769C17.7898 51.7587 16.75 51.3496 15.4091 51.3496C14.5341 51.3496 13.7614 51.5428 13.0909 51.9291C12.4318 52.3041 11.9148 52.8439 11.5398 53.5484C11.1761 54.253 10.9886 55.1053 10.9773 56.1053ZM40.5384 71.4803C38.8679 71.4803 37.3849 71.2019 36.0895 70.645C34.8054 70.0769 33.7884 69.2246 33.0384 68.0882C32.2997 66.9405 31.9304 65.503 31.9304 63.7757C31.9304 62.3212 32.1861 61.0939 32.6974 60.0939C33.2088 59.0939 33.9134 58.2814 34.8111 57.6564C35.7088 57.0314 36.7429 56.5598 37.9134 56.2416C39.0838 55.9121 40.3338 55.6905 41.6634 55.5769C43.152 55.4405 44.3509 55.2984 45.2599 55.1507C46.169 54.9916 46.8281 54.77 47.2372 54.4859C47.6577 54.1905 47.8679 53.7757 47.8679 53.2416V53.1564C47.8679 52.2814 47.5668 51.6053 46.9645 51.128C46.3622 50.6507 45.5497 50.4121 44.527 50.4121C43.4247 50.4121 42.5384 50.6507 41.8679 51.128C41.1974 51.6053 40.7713 52.2644 40.5895 53.1053L32.902 52.8325C33.1293 51.2416 33.7145 49.8212 34.6577 48.5712C35.6122 47.3098 36.919 46.3212 38.5781 45.6053C40.2486 44.878 42.2543 44.5144 44.5952 44.5144C46.2656 44.5144 47.8054 44.7132 49.2145 45.1109C50.6236 45.4973 51.8509 46.0655 52.8963 46.8155C53.9418 47.5541 54.7486 48.4632 55.3168 49.5428C55.8963 50.6223 56.1861 51.8553 56.1861 53.2416V71.0371H48.3452V67.3894H48.1406C47.6747 68.2757 47.0781 69.0257 46.3509 69.6394C45.6349 70.253 44.7884 70.7132 43.8111 71.02C42.8452 71.3269 41.7543 71.4803 40.5384 71.4803ZM43.1122 66.0257C44.0099 66.0257 44.8168 65.8439 45.5327 65.4803C46.2599 65.1166 46.8395 64.6166 47.2713 63.9803C47.7031 63.3325 47.919 62.5825 47.919 61.7303V59.2416C47.6804 59.3666 47.3906 59.4803 47.0497 59.5825C46.7202 59.6848 46.3565 59.7814 45.9588 59.8723C45.5611 59.9632 45.152 60.0428 44.7315 60.1109C44.3111 60.1791 43.9077 60.2416 43.5213 60.2984C42.7372 60.4234 42.0668 60.6166 41.5099 60.878C40.9645 61.1394 40.544 61.4803 40.2486 61.9007C39.9645 62.3098 39.8224 62.7984 39.8224 63.3666C39.8224 64.2303 40.1293 64.8894 40.7429 65.3439C41.3679 65.7984 42.1577 66.0257 43.1122 66.0257ZM61.2827 71.0371V36.128H69.6179V49.3382H69.7884C70.1293 48.5428 70.6122 47.7757 71.2372 47.0371C71.8736 46.2984 72.6804 45.6962 73.6577 45.2303C74.6463 44.753 75.8281 44.5144 77.2031 44.5144C79.0213 44.5144 80.7202 44.9916 82.2997 45.9462C83.8906 46.9007 85.1747 48.3723 86.152 50.3609C87.1293 52.3496 87.6179 54.8837 87.6179 57.9632C87.6179 60.9291 87.1463 63.4121 86.2031 65.4121C85.2713 67.4121 84.0099 68.9121 82.419 69.9121C80.8395 70.9121 79.0838 71.4121 77.152 71.4121C75.8338 71.4121 74.6918 71.1962 73.7259 70.7644C72.7599 70.3325 71.9474 69.7644 71.2884 69.0598C70.6406 68.3553 70.1406 67.5996 69.7884 66.7928H69.5327V71.0371H61.2827ZM69.4474 57.9462C69.4474 59.3553 69.6349 60.5825 70.0099 61.628C70.3963 62.6734 70.9474 63.4859 71.6634 64.0655C72.3906 64.6337 73.2599 64.9178 74.2713 64.9178C75.294 64.9178 76.1634 64.6337 76.8793 64.0655C77.5952 63.4859 78.1349 62.6734 78.4986 61.628C78.8736 60.5825 79.0611 59.3553 79.0611 57.9462C79.0611 56.5371 78.8736 55.3155 78.4986 54.2814C78.1349 53.2473 77.5952 52.4462 76.8793 51.878C76.1747 51.3098 75.3054 51.0257 74.2713 51.0257C73.2486 51.0257 72.3793 51.3041 71.6634 51.8609C70.9474 52.4178 70.3963 53.2132 70.0099 54.2473C69.6349 55.2814 69.4474 56.5144 69.4474 57.9462ZM91.9858 71.0371V44.8553H100.321V71.0371H91.9858ZM96.1619 41.8041C94.9915 41.8041 93.9858 41.4178 93.1449 40.645C92.304 39.8609 91.8835 38.9178 91.8835 37.8155C91.8835 36.7246 92.304 35.7928 93.1449 35.02C93.9858 34.2359 94.9915 33.8439 96.1619 33.8439C97.3438 33.8439 98.3494 34.2359 99.179 35.02C100.02 35.7928 100.44 36.7246 100.44 37.8155C100.44 38.9178 100.02 39.8609 99.179 40.645C98.3494 41.4178 97.3438 41.8041 96.1619 41.8041ZM120.405 44.8553V50.9916H103.888V44.8553H120.405ZM107.348 38.5825H115.683V62.8041C115.683 63.3155 115.763 63.7303 115.922 64.0484C116.092 64.3553 116.337 64.5769 116.655 64.7132C116.973 64.8382 117.354 64.9007 117.797 64.9007C118.115 64.9007 118.45 64.8723 118.803 64.8155C119.166 64.7473 119.439 64.6905 119.621 64.645L120.882 70.6621C120.484 70.7757 119.922 70.9178 119.195 71.0882C118.479 71.2587 117.621 71.3666 116.621 71.4121C114.666 71.503 112.99 71.2757 111.592 70.7303C110.206 70.1734 109.143 69.3098 108.405 68.1394C107.678 66.9689 107.325 65.4973 107.348 63.7246V38.5825ZM147.188 52.8496L139.534 53.0541C139.455 52.5087 139.239 52.0257 138.886 51.6053C138.534 51.1734 138.074 50.8382 137.506 50.5996C136.949 50.3496 136.301 50.2246 135.562 50.2246C134.597 50.2246 133.773 50.4178 133.091 50.8041C132.42 51.1905 132.091 51.7132 132.102 52.3723C132.091 52.8837 132.295 53.3269 132.716 53.7019C133.148 54.0769 133.915 54.378 135.017 54.6053L140.062 55.5598C142.676 56.0598 144.619 56.8894 145.892 58.0484C147.176 59.2075 147.824 60.7416 147.835 62.6507C147.824 64.4462 147.29 66.0087 146.233 67.3382C145.188 68.6678 143.756 69.7019 141.938 70.4405C140.119 71.1678 138.04 71.5314 135.699 71.5314C131.96 71.5314 129.011 70.7644 126.852 69.2303C124.705 67.6848 123.477 65.6166 123.17 63.0257L131.403 62.8212C131.585 63.7757 132.057 64.503 132.818 65.003C133.58 65.503 134.551 65.753 135.733 65.753C136.801 65.753 137.67 65.5541 138.341 65.1564C139.011 64.7587 139.352 64.2303 139.364 63.5712C139.352 62.9803 139.091 62.5087 138.58 62.1564C138.068 61.7928 137.267 61.5087 136.176 61.3041L131.608 60.4348C128.983 59.9575 127.028 59.0769 125.744 57.7928C124.46 56.4973 123.824 54.8496 123.835 52.8496C123.824 51.0996 124.29 49.6053 125.233 48.3666C126.176 47.1166 127.517 46.1621 129.256 45.503C130.994 44.8439 133.045 44.5144 135.409 44.5144C138.955 44.5144 141.75 45.2587 143.795 46.7473C145.841 48.2246 146.972 50.2587 147.188 52.8496Z"
        fill="white"
      />
      <rect
        x="0.5"
        y="0.537079"
        width="15"
        height="15"
        rx="3.5"
        fill="#18181B"
        stroke="#27272A"
      />
      <rect
        x="20.5"
        y="0.537079"
        width="15"
        height="15"
        rx="3.5"
        fill="#4C1D95"
        stroke="#6D28D9"
      />
      <rect
        x="40.5"
        y="0.537079"
        width="15"
        height="15"
        rx="3.5"
        fill="#5B21B6"
        stroke="#7C3AED"
      />
      <rect
        x="60.5"
        y="0.537079"
        width="15"
        height="15"
        rx="3.5"
        fill="#6D28D9"
        stroke="#8B5CF6"
      />
      <rect
        x="80.5"
        y="0.537079"
        width="15"
        height="15"
        rx="3.5"
        fill="#7C3AED"
        stroke="#A78BFA"
      />
      <rect
        x="100.5"
        y="0.537079"
        width="15"
        height="15"
        rx="3.5"
        fill="#8B5CF6"
        stroke="#C4B5FD"
      />
    </svg>